{
	"asset":{
		"generator":"Khronos glTF Blender I/O v5.0.21",
		"version":"2.0"
	},
	"scene":0,
	"scenes":[
		{
			"name":"Scene",
			"nodes":[
				0
			]
		}
	],
	"nodes":[
		{
			"mesh":0,
			"name":"Text",
			"rotation":[
				0.6532815098762512,
				-0.27059805393218994,
				0.27059805393218994,
				0.6532815098762512
			],
			"scale":[
				37.82999038696289,
				37.82999038696289,
				37.82999038696289
			],
			"translation":[
				52.099998474121094,
				29.654294967651367,
				-48.7599983215332
			]
		}
	],
	"animations":[
		{
			"channels":[
				{
					"sampler":0,
					"target":{
						"node":0,
						"path":"translation"
					}
				}
			],
			"name":"TextAction",
			"samplers":[
				{
					"input":4,
					"interpolation":"LINEAR",
					"output":5
				}
			]
		}
	],
	"materials":[
		{
			"doubleSided":true,
			"name":"Verde",
			"pbrMetallicRoughness":{
				"baseColorFactor":[
					0.046433039009571075,
					0.8000074625015259,
					0.08553368598222733,
					1
				],
				"metallicFactor":0
			}
		}
	],
	"meshes":[
		{
			"name":"Text",
			"primitives":[
				{
					"attributes":{
						"POSITION":0,
						"NORMAL":1,
						"TEXCOORD_0":2
					},
					"indices":3,
					"material":0
				}
			]
		}
	],
	"accessors":[
		{
			"bufferView":0,
			"componentType":5126,
			"count":678,
			"max":[
				0.31800001859664917,
				0.14999999105930328,
				0.3700000047683716
			],
			"min":[
				-0.31800001859664917,
				-0.14999999105930328,
				-0.37000003457069397
			],
			"type":"VEC3"
		},
		{
			"bufferView":1,
			"componentType":5126,
			"count":678,
			"type":"VEC3"
		},
		{
			"bufferView":2,
			"componentType":5126,
			"count":678,
			"type":"VEC2"
		},
		{
			"bufferView":3,
			"componentType":5123,
			"count":2016,
			"type":"SCALAR"
		},
		{
			"bufferView":4,
			"componentType":5126,
			"count":50,
			"max":[
				2.0833333333333335
			],
			"min":[
				0.041666666666666664
			],
			"type":"SCALAR"
		},
		{
			"bufferView":5,
			"componentType":5126,
			"count":50,
			"type":"VEC3"
		}
	],
	"bufferViews":[
		{
			"buffer":0,
			"byteLength":8136,
			"byteOffset":0,
			"target":34962
		},
		{
			"buffer":0,
			"byteLength":8136,
			"byteOffset":8136,
			"target":34962
		},
		{
			"buffer":0,
			"byteLength":5424,
			"byteOffset":16272,
			"target":34962
		},
		{
			"buffer":0,
			"byteLength":4032,
			"byteOffset":21696,
			"target":34963
		},
		{
			"buffer":0,
			"byteLength":200,
			"byteOffset":25728
		},
		{
			"buffer":0,
			"byteLength":600,
			"byteOffset":25928
		}
	],
	"buffers":[
		{
			"byteLength":26528,
			"uri":"Flecha.bin"
		}
	]
}
