{
	"asset":{
		"generator":"Khronos glTF Blender I/O v4.5.49",
		"version":"2.0"
	},
	"scene":0,
	"scenes":[
		{
			"name":"Scene",
			"nodes":[
				0,
				1,
				2,
				3,
				4
			]
		}
	],
	"nodes":[
		{
			"mesh":0,
			"name":"Circle",
			"rotation":[
				0.7071068286895752,
				0,
				0,
				0.7071068286895752
			],
			"scale":[
				1.7468231916427612,
				0.3630360960960388,
				1.7468231916427612
			]
		},
		{
			"mesh":1,
			"name":"Circle.001",
			"rotation":[
				0.7071068286895752,
				0,
				0,
				0.7071068286895752
			],
			"scale":[
				0.11437159031629562,
				0.09605196118354797,
				0.11437159031629562
			],
			"translation":[
				0,
				0,
				0.12982100248336792
			]
		},
		{
			"mesh":2,
			"name":"Plane",
			"rotation":[
				0.7071068286895752,
				0,
				0,
				0.7071068286895752
			],
			"translation":[
				0,
				0,
				0.3079838156700134
			]
		},
		{
			"mesh":3,
			"name":"Plane.001",
			"rotation":[
				-0.5,
				0.5,
				-0.5,
				0.5000000596046448
			],
			"translation":[
				0,
				0,
				0.20867949724197388
			]
		},
		{
			"mesh":4,
			"name":"Circle.002",
			"rotation":[
				0.7071068286895752,
				0,
				0,
				0.7071068286895752
			],
			"scale":[
				1.7468231916427612,
				0.3630360960960388,
				1.7468231916427612
			]
		}
	],
	"materials":[
		{
			"doubleSided":true,
			"name":"Rojo",
			"pbrMetallicRoughness":{
				"baseColorFactor":[
					0.8001260757446289,
					0,
					0.04006170481443405,
					1
				],
				"metallicFactor":0
			}
		},
		{
			"doubleSided":true,
			"name":"Negro",
			"pbrMetallicRoughness":{
				"baseColorFactor":[
					0,
					0,
					0,
					1
				],
				"metallicFactor":0,
				"roughnessFactor":0.5
			}
		},
		{
			"doubleSided":true,
			"name":"AmarilloSuave",
			"pbrMetallicRoughness":{
				"baseColorFactor":[
					0.8002041578292847,
					0.5319406390190125,
					0.3259497582912445,
					1
				],
				"metallicFactor":0,
				"roughnessFactor":0.5
			}
		}
	],
	"meshes":[
		{
			"name":"Circle",
			"primitives":[
				{
					"attributes":{
						"POSITION":0,
						"NORMAL":1,
						"TEXCOORD_0":2
					},
					"indices":3,
					"material":0
				}
			]
		},
		{
			"name":"Circle.002",
			"primitives":[
				{
					"attributes":{
						"POSITION":4,
						"NORMAL":5,
						"TEXCOORD_0":6
					},
					"indices":7,
					"material":1
				}
			]
		},
		{
			"name":"Plane",
			"primitives":[
				{
					"attributes":{
						"POSITION":8,
						"NORMAL":9,
						"TEXCOORD_0":10
					},
					"indices":11,
					"material":1
				}
			]
		},
		{
			"name":"Plane.002",
			"primitives":[
				{
					"attributes":{
						"POSITION":12,
						"NORMAL":13,
						"TEXCOORD_0":14
					},
					"indices":11,
					"material":1
				}
			]
		},
		{
			"name":"Circle.003",
			"primitives":[
				{
					"attributes":{
						"POSITION":15,
						"NORMAL":16,
						"TEXCOORD_0":17
					},
					"indices":18,
					"material":2
				}
			]
		}
	],
	"accessors":[
		{
			"bufferView":0,
			"componentType":5126,
			"count":88,
			"max":[
				1,
				0.8378559350967407,
				1
			],
			"min":[
				-1,
				0,
				-1
			],
			"type":"VEC3"
		},
		{
			"bufferView":1,
			"componentType":5126,
			"count":88,
			"type":"VEC3"
		},
		{
			"bufferView":2,
			"componentType":5126,
			"count":88,
			"type":"VEC2"
		},
		{
			"bufferView":3,
			"componentType":5123,
			"count":162,
			"type":"SCALAR"
		},
		{
			"bufferView":4,
			"componentType":5126,
			"count":104,
			"max":[
				1,
				2.554530620574951,
				1
			],
			"min":[
				-1,
				0,
				-1.0000001192092896
			],
			"type":"VEC3"
		},
		{
			"bufferView":5,
			"componentType":5126,
			"count":104,
			"type":"VEC3"
		},
		{
			"bufferView":6,
			"componentType":5126,
			"count":104,
			"type":"VEC2"
		},
		{
			"bufferView":7,
			"componentType":5123,
			"count":198,
			"type":"SCALAR"
		},
		{
			"bufferView":8,
			"componentType":5126,
			"count":24,
			"max":[
				0.11437159031629562,
				0,
				6.11604877853722e-10
			],
			"min":[
				-0.11437159031629562,
				-0.01835973747074604,
				-1.0204405784606934
			],
			"type":"VEC3"
		},
		{
			"bufferView":9,
			"componentType":5126,
			"count":24,
			"type":"VEC3"
		},
		{
			"bufferView":10,
			"componentType":5126,
			"count":24,
			"type":"VEC2"
		},
		{
			"bufferView":11,
			"componentType":5123,
			"count":36,
			"type":"SCALAR"
		},
		{
			"bufferView":12,
			"componentType":5126,
			"count":24,
			"max":[
				0.11437159031629562,
				0,
				8.025281550416707e-10
			],
			"min":[
				-0.11437162756919861,
				-0.01835971511900425,
				-0.5178613066673279
			],
			"type":"VEC3"
		},
		{
			"bufferView":13,
			"componentType":5126,
			"count":24,
			"type":"VEC3"
		},
		{
			"bufferView":14,
			"componentType":5126,
			"count":24,
			"type":"VEC2"
		},
		{
			"bufferView":15,
			"componentType":5126,
			"count":8,
			"max":[
				0.8798884749412537,
				0.3575979769229889,
				0.8798884749412537
			],
			"min":[
				-0.8798884749412537,
				0.3575979769229889,
				-0.8798884749412537
			],
			"type":"VEC3"
		},
		{
			"bufferView":16,
			"componentType":5126,
			"count":8,
			"type":"VEC3"
		},
		{
			"bufferView":17,
			"componentType":5126,
			"count":8,
			"type":"VEC2"
		},
		{
			"bufferView":18,
			"componentType":5123,
			"count":18,
			"type":"SCALAR"
		}
	],
	"bufferViews":[
		{
			"buffer":0,
			"byteLength":1056,
			"byteOffset":0,
			"target":34962
		},
		{
			"buffer":0,
			"byteLength":1056,
			"byteOffset":1056,
			"target":34962
		},
		{
			"buffer":0,
			"byteLength":704,
			"byteOffset":2112,
			"target":34962
		},
		{
			"buffer":0,
			"byteLength":324,
			"byteOffset":2816,
			"target":34963
		},
		{
			"buffer":0,
			"byteLength":1248,
			"byteOffset":3140,
			"target":34962
		},
		{
			"buffer":0,
			"byteLength":1248,
			"byteOffset":4388,
			"target":34962
		},
		{
			"buffer":0,
			"byteLength":832,
			"byteOffset":5636,
			"target":34962
		},
		{
			"buffer":0,
			"byteLength":396,
			"byteOffset":6468,
			"target":34963
		},
		{
			"buffer":0,
			"byteLength":288,
			"byteOffset":6864,
			"target":34962
		},
		{
			"buffer":0,
			"byteLength":288,
			"byteOffset":7152,
			"target":34962
		},
		{
			"buffer":0,
			"byteLength":192,
			"byteOffset":7440,
			"target":34962
		},
		{
			"buffer":0,
			"byteLength":72,
			"byteOffset":7632,
			"target":34963
		},
		{
			"buffer":0,
			"byteLength":288,
			"byteOffset":7704,
			"target":34962
		},
		{
			"buffer":0,
			"byteLength":288,
			"byteOffset":7992,
			"target":34962
		},
		{
			"buffer":0,
			"byteLength":192,
			"byteOffset":8280,
			"target":34962
		},
		{
			"buffer":0,
			"byteLength":96,
			"byteOffset":8472,
			"target":34962
		},
		{
			"buffer":0,
			"byteLength":96,
			"byteOffset":8568,
			"target":34962
		},
		{
			"buffer":0,
			"byteLength":64,
			"byteOffset":8664,
			"target":34962
		},
		{
			"buffer":0,
			"byteLength":36,
			"byteOffset":8728,
			"target":34963
		}
	],
	"buffers":[
		{
			"byteLength":8764,
			"uri":"Reloj.bin"
		}
	]
}
